<svg xmlns="http://www.w3.org/2000/svg" version="1.1" xmlns:xlink="http://www.w3.org/1999/xlink" width="512pt" height="512pt"><svg width="512pt" height="512pt" version="1.1" viewBox="0 0 512 512" xmlns="http://www.w3.org/2000/svg">
 <path d="m76.543 204.34c3.8906-14.133 8.9609-27.801 15.258-40.961 0.41016-0.92188 0.35938-1.7422-0.20312-2.6094l-35.227-50.789c-0.76953-1.125-0.66406-2.6094 0.25781-3.5859 14.184-15.871 28.98-31.539 44.441-46.898 3.6367-3.5859 7.5273-4.0977 11.777-1.4844 16.332 10.086 31.898 21.301 46.695 33.691 0.51172 0.46094 1.2305 0.5625 1.8945 0.30859l41.473-17c0.51172-0.20312 0.87109-0.5625 0.97266-1.125l14.535-56.992c0.51172-1.9453 2.2539-3.3281 4.25-3.3281l63.234-0.76562c1.7422-0.050781 3.3281 1.1758 3.6875 2.8672l14.078 57.547c0.25781 1.0234 0.97266 1.8438 1.9453 2.2031l43.672 17.922c0.76953 0.30859 1.4336 0.20312 2.0469-0.35938 15.359-13.672 31.949-25.652 49.816-35.992 1.332-0.76953 2.9688-0.51172 3.9922 0.51172l48.027 48.078c0.92188 0.92188 1.0742 2.3047 0.46094 3.4297-10.957 18.738-23.246 36.504-36.914 53.301-0.51172 0.61328-0.5625 1.4844-0.20312 2.1523 7.3711 13.363 13.363 27.34 17.922 41.883 0.41016 1.332 1.5352 2.3555 2.8672 2.7148l58.523 14.488c0.61328 0.15234 0.92188 0.51172 0.92188 1.1758l1.7422 60.16c0.050781 2.0977-1.332 3.9414-3.3281 4.5039l-59.191 16.277c-0.61328 0.15234-1.125 0.61328-1.332 1.2305l-15.922 41.062c-0.30859 0.76953-0.20312 1.4336 0.25781 2.0977l33.535 47.359c0.76953 1.0234 0.66406 2.457-0.20312 3.4297-13.414 14.848-26.828 29.902-40.242 45.105-2.3047 2.6094-4.9141 4.7617-7.8867 6.5039-0.82031 0.46094-1.793 0.51172-2.6094 0.10156-18.023-9.2656-34.969-20.172-50.895-32.719-0.82031-0.66406-1.9453-0.71875-2.8164-0.20313-13.105 7.6289-26.98 13.465-41.625 17.512-0.61328 0.15234-1.0742 0.66406-1.2305 1.2305l-16.742 59.492c-0.20312 0.82031-0.97266 1.3828-1.793 1.332l-61.902-0.92188c-2.7656-0.050782-4.5586-1.4336-5.2734-4.0977l-15.105-54.629c-0.20312-0.82031-0.71875-1.3828-1.5352-1.5859-14.184-4.0977-27.547-9.8828-40.242-17.406-0.66406-0.41016-1.332-0.35938-1.9961 0.050781l-52.633 34.047c-1.0234 0.66406-2.3555 0.46094-3.1758-0.41016l-47.77-52.223c-0.5625-0.66406-0.71875-1.5859-0.25781-2.3555 10.344-18.227 22.016-35.48 35.176-51.762 0.61328-0.76953 0.76953-1.5859 0.41016-2.5586l-15.617-39.371c-0.25781-0.66406-0.82031-1.125-1.4844-1.332l-59.902-15.566c-0.97266-0.25781-1.6367-1.125-1.6367-2.1523l-0.054687-58.676c0-1.9961 1.332-3.7383 3.2266-4.3008l57.754-17.461c1.0742-0.35547 1.793-1.0742 2.0977-2.1484m186.42 145.92c50.125-4.6602 86.938-49.867 82.176-100.96-4.7109-51.098-49.203-88.781-99.328-84.172-50.125 4.6602-86.938 49.867-82.176 100.96 4.707 51.148 49.152 88.832 99.328 84.172z" fill="#0097ff"></path>
</svg><style>@media (prefers-color-scheme: light) { :root { filter: none; } }
@media (prefers-color-scheme: dark) { :root { filter: none; } }
</style></svg>